<svg width="125" height="19" viewBox="0 0 125 19" fill="none" xmlns="http://www.w3.org/2000/svg">
<path d="M6.5625 11.7773H2.16797V9.24609H6.5625C7.28125 9.24609 7.86328 9.12891 8.30859 8.89453C8.76172 8.65234 9.09375 8.32422 9.30469 7.91016C9.51562 7.48828 9.62109 7.00781 9.62109 6.46875C9.62109 5.94531 9.51562 5.45703 9.30469 5.00391C9.09375 4.55078 8.76172 4.18359 8.30859 3.90234C7.86328 3.62109 7.28125 3.48047 6.5625 3.48047H3.22266V18H0V0.9375H6.5625C7.89062 0.9375 9.02344 1.17578 9.96094 1.65234C10.9062 2.12109 11.625 2.77344 12.1172 3.60938C12.6172 4.4375 12.8672 5.38281 12.8672 6.44531C12.8672 7.54688 12.6172 8.49609 12.1172 9.29297C11.625 10.0898 10.9062 10.7031 9.96094 11.1328C9.02344 11.5625 7.89062 11.7773 6.5625 11.7773ZM20.7188 18.2344C19.7578 18.2344 18.8945 18.0781 18.1289 17.7656C17.3633 17.4531 16.7109 17.0195 16.1719 16.4648C15.6406 15.9023 15.2305 15.25 14.9414 14.5078C14.6602 13.7578 14.5195 12.9531 14.5195 12.0938V11.625C14.5195 10.6484 14.6602 9.76172 14.9414 8.96484C15.2227 8.16016 15.6211 7.46875 16.1367 6.89062C16.6523 6.3125 17.2695 5.86719 17.9883 5.55469C18.707 5.24219 19.5 5.08594 20.3672 5.08594C21.2656 5.08594 22.0586 5.23828 22.7461 5.54297C23.4336 5.83984 24.0078 6.26172 24.4688 6.80859C24.9297 7.35547 25.2773 8.01172 25.5117 8.77734C25.7461 9.53516 25.8633 10.375 25.8633 11.2969V12.5977H15.9258V10.4648H22.8164V10.2305C22.8008 9.73828 22.707 9.28906 22.5352 8.88281C22.3633 8.46875 22.0977 8.14062 21.7383 7.89844C21.3789 7.64844 20.9141 7.52344 20.3438 7.52344C19.8828 7.52344 19.4805 7.625 19.1367 7.82812C18.8008 8.02344 18.5195 8.30469 18.293 8.67188C18.0742 9.03125 17.9102 9.46094 17.8008 9.96094C17.6914 10.4609 17.6367 11.0156 17.6367 11.625V12.0938C17.6367 12.625 17.707 13.1172 17.8477 13.5703C17.9961 14.0234 18.2109 14.418 18.4922 14.7539C18.7812 15.082 19.125 15.3398 19.5234 15.5273C19.9297 15.707 20.3906 15.7969 20.9062 15.7969C21.5547 15.7969 22.1406 15.6719 22.6641 15.4219C23.1953 15.1641 23.6562 14.7852 24.0469 14.2852L25.6055 15.9023C25.3398 16.293 24.9805 16.668 24.5273 17.0273C24.082 17.3867 23.543 17.6797 22.9102 17.9062C22.2773 18.125 21.5469 18.2344 20.7188 18.2344ZM33.9375 5.32031V7.54688H26.6719V5.32031H33.9375ZM28.6172 2.20312H31.7227V14.3438C31.7227 14.7188 31.7734 15.0078 31.875 15.2109C31.9766 15.4141 32.1289 15.5508 32.332 15.6211C32.5352 15.6914 32.7773 15.7266 33.0586 15.7266C33.2617 15.7266 33.4492 15.7148 33.6211 15.6914C33.793 15.668 33.9375 15.6445 34.0547 15.6211L34.0664 17.9414C33.8086 18.0273 33.5156 18.0977 33.1875 18.1523C32.8672 18.207 32.5039 18.2344 32.0977 18.2344C31.4023 18.2344 30.793 18.1172 30.2695 17.8828C29.7461 17.6406 29.3398 17.2539 29.0508 16.7227C28.7617 16.1836 28.6172 15.4727 28.6172 14.5898V2.20312ZM42.9844 15.3047V9.45703C42.9844 9.02734 42.9102 8.65625 42.7617 8.34375C42.6133 8.03125 42.3867 7.78906 42.082 7.61719C41.7773 7.44531 41.3906 7.35938 40.9219 7.35938C40.5078 7.35938 40.1445 7.42969 39.832 7.57031C39.5273 7.71094 39.293 7.91016 39.1289 8.16797C38.9648 8.41797 38.8828 8.70703 38.8828 9.03516H35.7773C35.7773 8.51172 35.9023 8.01562 36.1523 7.54688C36.4023 7.07031 36.7578 6.64844 37.2188 6.28125C37.6875 5.90625 38.2461 5.61328 38.8945 5.40234C39.5508 5.19141 40.2852 5.08594 41.0977 5.08594C42.0586 5.08594 42.9141 5.25 43.6641 5.57812C44.4219 5.89844 45.0156 6.38281 45.4453 7.03125C45.8828 7.67969 46.1016 8.49609 46.1016 9.48047V15.0117C46.1016 15.6445 46.1406 16.1875 46.2188 16.6406C46.3047 17.0859 46.4297 17.4727 46.5938 17.8008V18H43.4414C43.293 17.6797 43.1797 17.2734 43.1016 16.7812C43.0234 16.2812 42.9844 15.7891 42.9844 15.3047ZM43.418 10.2773L43.4414 12.1172H41.4844C41 12.1172 40.5742 12.168 40.207 12.2695C39.8398 12.3633 39.5391 12.5039 39.3047 12.6914C39.0703 12.8711 38.8945 13.0898 38.7773 13.3477C38.6602 13.5977 38.6016 13.8828 38.6016 14.2031C38.6016 14.5156 38.6719 14.7969 38.8125 15.0469C38.9609 15.2969 39.1719 15.4961 39.4453 15.6445C39.7266 15.7852 40.0547 15.8555 40.4297 15.8555C40.9766 15.8555 41.4531 15.7461 41.8594 15.5273C42.2656 15.3008 42.582 15.0273 42.8086 14.707C43.0352 14.3867 43.1562 14.082 43.1719 13.793L44.0625 15.1289C43.9531 15.4492 43.7891 15.7891 43.5703 16.1484C43.3516 16.5078 43.0703 16.8438 42.7266 17.1562C42.3828 17.4688 41.9688 17.7266 41.4844 17.9297C41 18.1328 40.4375 18.2344 39.7969 18.2344C38.9766 18.2344 38.2422 18.0703 37.5938 17.7422C36.9453 17.4141 36.4336 16.9648 36.0586 16.3945C35.6836 15.8242 35.4961 15.1758 35.4961 14.4492C35.4961 13.7773 35.6211 13.1836 35.8711 12.668C36.1211 12.1523 36.4922 11.7188 36.9844 11.3672C37.4766 11.0078 38.0859 10.7383 38.8125 10.5586C39.5469 10.3711 40.3867 10.2773 41.332 10.2773H43.418ZM52.1719 0V18H49.0664V0H52.1719ZM57.9141 8.78906L61.0195 6.75C61.5117 6.42188 61.8516 6.10547 62.0391 5.80078C62.2266 5.49609 62.3203 5.12891 62.3203 4.69922C62.3203 4.31641 62.1719 3.96094 61.875 3.63281C61.5859 3.29687 61.1758 3.12891 60.6445 3.12891C60.2695 3.12891 59.9531 3.21484 59.6953 3.38672C59.4375 3.55859 59.2422 3.78906 59.1094 4.07812C58.9844 4.35938 58.9219 4.67188 58.9219 5.01562C58.9219 5.36719 59.0117 5.72656 59.1914 6.09375C59.3789 6.46094 59.6289 6.84766 59.9414 7.25391C60.2617 7.65234 60.6172 8.08594 61.0078 8.55469L69.0586 18H65.5195L58.9336 10.3359C58.3789 9.64844 57.8867 9.01562 57.457 8.4375C57.0273 7.85938 56.6914 7.30078 56.4492 6.76172C56.2148 6.21484 56.0977 5.65234 56.0977 5.07422C56.0977 4.18359 56.2852 3.41016 56.6602 2.75391C57.0352 2.09766 57.5625 1.58984 58.2422 1.23047C58.9297 0.871094 59.7344 0.691406 60.6562 0.691406C61.5312 0.691406 62.2852 0.871094 62.918 1.23047C63.5586 1.58203 64.0547 2.05078 64.4062 2.63672C64.7578 3.22266 64.9336 3.86328 64.9336 4.55859C64.9336 5.08984 64.8359 5.58203 64.6406 6.03516C64.4453 6.48047 64.1758 6.89062 63.832 7.26562C63.4883 7.63281 63.0898 7.98047 62.6367 8.30859L58.9805 10.9336C58.6289 11.2305 58.3633 11.5234 58.1836 11.8125C58.0117 12.0938 57.8945 12.3555 57.832 12.5977C57.7773 12.8398 57.75 13.0664 57.75 13.2773C57.75 13.7539 57.8516 14.1836 58.0547 14.5664C58.2656 14.9414 58.5625 15.2422 58.9453 15.4688C59.3359 15.6875 59.7969 15.7969 60.3281 15.7969C60.9766 15.7969 61.6016 15.6523 62.2031 15.3633C62.8047 15.0742 63.3438 14.6641 63.8203 14.1328C64.3047 13.6016 64.6875 12.9688 64.9688 12.2344C65.2578 11.4922 65.4023 10.6758 65.4023 9.78516H68.0508C68.0508 10.6367 67.9688 11.4453 67.8047 12.2109C67.6406 12.9688 67.375 13.6719 67.0078 14.3203C66.6406 14.9688 66.1602 15.5469 65.5664 16.0547C65.5117 16.1016 65.4453 16.1641 65.3672 16.2422C65.2969 16.3203 65.2344 16.3828 65.1797 16.4297C64.4688 17.0391 63.6992 17.4961 62.8711 17.8008C62.0508 18.0977 61.1562 18.2461 60.1875 18.2461C59.0469 18.2461 58.0625 18.0391 57.2344 17.625C56.4062 17.2109 55.7656 16.6406 55.3125 15.9141C54.8672 15.1875 54.6445 14.3555 54.6445 13.418C54.6445 12.7227 54.7812 12.1172 55.0547 11.6016C55.3359 11.0781 55.7227 10.5938 56.2148 10.1484C56.707 9.69531 57.2734 9.24219 57.9141 8.78906ZM79.875 13.5703C79.875 13.2422 79.8242 12.9492 79.7227 12.6914C79.6289 12.4258 79.4531 12.1875 79.1953 11.9766C78.9453 11.7578 78.5898 11.5469 78.1289 11.3438C77.6758 11.1328 77.0898 10.9141 76.3711 10.6875C75.5742 10.4375 74.832 10.1562 74.1445 9.84375C73.457 9.53125 72.8516 9.16797 72.3281 8.75391C71.8125 8.33984 71.4102 7.86328 71.1211 7.32422C70.832 6.77734 70.6875 6.14453 70.6875 5.42578C70.6875 4.72266 70.8359 4.08203 71.1328 3.50391C71.4375 2.92578 71.8672 2.42969 72.4219 2.01562C72.9766 1.59375 73.6289 1.26953 74.3789 1.04297C75.1367 0.816406 75.9727 0.703125 76.8867 0.703125C78.1523 0.703125 79.2461 0.933594 80.168 1.39453C81.0977 1.85547 81.8164 2.48047 82.3242 3.26953C82.832 4.05859 83.0859 4.94531 83.0859 5.92969H79.875C79.875 5.39844 79.7617 4.92969 79.5352 4.52344C79.3164 4.11719 78.9805 3.79688 78.5273 3.5625C78.082 3.32812 77.5195 3.21094 76.8398 3.21094C76.1836 3.21094 75.6367 3.30859 75.1992 3.50391C74.7695 3.69922 74.4453 3.96484 74.2266 4.30078C74.0156 4.63672 73.9102 5.01172 73.9102 5.42578C73.9102 5.73828 73.9844 6.01953 74.1328 6.26953C74.2812 6.51172 74.5039 6.74219 74.8008 6.96094C75.0977 7.17188 75.4648 7.37109 75.9023 7.55859C76.3477 7.73828 76.8633 7.91797 77.4492 8.09766C78.3867 8.37891 79.207 8.69141 79.9102 9.03516C80.6211 9.37891 81.2109 9.76953 81.6797 10.207C82.1562 10.6445 82.5117 11.1367 82.7461 11.6836C82.9883 12.2305 83.1094 12.8516 83.1094 13.5469C83.1094 14.2812 82.9648 14.9375 82.6758 15.5156C82.3867 16.0938 81.9727 16.5859 81.4336 16.9922C80.8945 17.3984 80.2461 17.707 79.4883 17.918C78.7383 18.1289 77.8984 18.2344 76.9688 18.2344C76.1406 18.2344 75.3203 18.125 74.5078 17.9062C73.7031 17.6797 72.9727 17.3438 72.3164 16.8984C71.6602 16.4453 71.1367 15.875 70.7461 15.1875C70.3555 14.4922 70.1602 13.6797 70.1602 12.75H73.3945C73.3945 13.2891 73.4805 13.75 73.6523 14.1328C73.832 14.5078 74.082 14.8164 74.4023 15.0586C74.7305 15.293 75.1133 15.4648 75.5508 15.5742C75.9883 15.6836 76.4609 15.7383 76.9688 15.7383C77.625 15.7383 78.1641 15.6484 78.5859 15.4688C79.0156 15.2812 79.3359 15.0234 79.5469 14.6953C79.7656 14.3672 79.875 13.9922 79.875 13.5703ZM91.3594 5.32031V7.54688H84.0938V5.32031H91.3594ZM86.0391 2.20312H89.1445V14.3438C89.1445 14.7188 89.1953 15.0078 89.2969 15.2109C89.3984 15.4141 89.5508 15.5508 89.7539 15.6211C89.957 15.6914 90.1992 15.7266 90.4805 15.7266C90.6836 15.7266 90.8711 15.7148 91.043 15.6914C91.2148 15.668 91.3594 15.6445 91.4766 15.6211L91.4883 17.9414C91.2305 18.0273 90.9375 18.0977 90.6094 18.1523C90.2891 18.207 89.9258 18.2344 89.5195 18.2344C88.8242 18.2344 88.2148 18.1172 87.6914 17.8828C87.168 17.6406 86.7617 17.2539 86.4727 16.7227C86.1836 16.1836 86.0391 15.4727 86.0391 14.5898V2.20312ZM99.1172 18.2344C98.1562 18.2344 97.293 18.0781 96.5273 17.7656C95.7617 17.4531 95.1094 17.0195 94.5703 16.4648C94.0391 15.9023 93.6289 15.25 93.3398 14.5078C93.0586 13.7578 92.918 12.9531 92.918 12.0938V11.625C92.918 10.6484 93.0586 9.76172 93.3398 8.96484C93.6211 8.16016 94.0195 7.46875 94.5352 6.89062C95.0508 6.3125 95.668 5.86719 96.3867 5.55469C97.1055 5.24219 97.8984 5.08594 98.7656 5.08594C99.6641 5.08594 100.457 5.23828 101.145 5.54297C101.832 5.83984 102.406 6.26172 102.867 6.80859C103.328 7.35547 103.676 8.01172 103.91 8.77734C104.145 9.53516 104.262 10.375 104.262 11.2969V12.5977H94.3242V10.4648H101.215V10.2305C101.199 9.73828 101.105 9.28906 100.934 8.88281C100.762 8.46875 100.496 8.14062 100.137 7.89844C99.7773 7.64844 99.3125 7.52344 98.7422 7.52344C98.2812 7.52344 97.8789 7.625 97.5352 7.82812C97.1992 8.02344 96.918 8.30469 96.6914 8.67188C96.4727 9.03125 96.3086 9.46094 96.1992 9.96094C96.0898 10.4609 96.0352 11.0156 96.0352 11.625V12.0938C96.0352 12.625 96.1055 13.1172 96.2461 13.5703C96.3945 14.0234 96.6094 14.418 96.8906 14.7539C97.1797 15.082 97.5234 15.3398 97.9219 15.5273C98.3281 15.707 98.7891 15.7969 99.3047 15.7969C99.9531 15.7969 100.539 15.6719 101.062 15.4219C101.594 15.1641 102.055 14.7852 102.445 14.2852L104.004 15.9023C103.738 16.293 103.379 16.668 102.926 17.0273C102.48 17.3867 101.941 17.6797 101.309 17.9062C100.676 18.125 99.9453 18.2344 99.1172 18.2344ZM109.418 7.92188V18H106.324V5.32031H109.242L109.418 7.92188ZM108.961 11.2031H108.012C108.012 10.3203 108.117 9.50781 108.328 8.76562C108.547 8.02344 108.867 7.37891 109.289 6.83203C109.711 6.27734 110.23 5.84766 110.848 5.54297C111.473 5.23828 112.195 5.08594 113.016 5.08594C113.586 5.08594 114.109 5.17188 114.586 5.34375C115.062 5.50781 115.473 5.76953 115.816 6.12891C116.168 6.48047 116.438 6.94141 116.625 7.51172C116.812 8.07422 116.906 8.75 116.906 9.53906V18H113.812V9.85547C113.812 9.26172 113.727 8.79688 113.555 8.46094C113.391 8.125 113.152 7.89062 112.84 7.75781C112.527 7.61719 112.152 7.54688 111.715 7.54688C111.23 7.54688 110.812 7.64453 110.461 7.83984C110.117 8.02734 109.832 8.28906 109.605 8.625C109.387 8.96094 109.223 9.34766 109.113 9.78516C109.012 10.2227 108.961 10.6953 108.961 11.2031ZM116.672 10.6289L115.395 10.8633C115.402 10.0664 115.512 9.32031 115.723 8.625C115.934 7.92188 116.242 7.30859 116.648 6.78516C117.062 6.25391 117.574 5.83984 118.184 5.54297C118.801 5.23828 119.512 5.08594 120.316 5.08594C120.941 5.08594 121.504 5.17578 122.004 5.35547C122.512 5.52734 122.945 5.80469 123.305 6.1875C123.664 6.5625 123.938 7.05078 124.125 7.65234C124.32 8.25391 124.418 8.98828 124.418 9.85547V18H121.301V9.84375C121.301 9.22656 121.215 8.75391 121.043 8.42578C120.879 8.09766 120.641 7.87109 120.328 7.74609C120.016 7.61328 119.648 7.54688 119.227 7.54688C118.797 7.54688 118.422 7.62891 118.102 7.79297C117.789 7.94922 117.523 8.16797 117.305 8.44922C117.094 8.73047 116.934 9.05859 116.824 9.43359C116.723 9.80078 116.672 10.1992 116.672 10.6289Z" fill="#F9FAF8"/>
</svg>
